#!OML:ASF X:\für Bonn\!DataBase\2005_08_10_Bjorn_Final\c3d\bjorn.ASF
:FULLY-SPECIFIED
:DEGREES
111
root 1.28052 18.5918 2.42224 -183.243 4.50403 -204.701
lowerback 4.83332 -4.24819 12.9398
upperback 13.0855 -3.87894 1.72199
thorax 10.7306 0.184903 -5.2353
lowerneck -5.17642 7.80701 -1.39004
upperneck 7.61066 15.734 -24.3221
head 5.15144 7.72394 -6.18406
rclavicle -5.56597e-014 -5.725e-014
rhumerus -60.2496 -34.0016 -40.4671
rradius 27.4147
rwrist -23.3448
rhand -11.9608 8.01343
rfingers 7.12502
rthumb 14.0948 -21.4886
lclavicle -5.56597e-014 -5.725e-014
lhumerus -6.35576 6.91785 36.0934
lradius 87.9716
lwrist -34.6381
lhand -56.2156 -31.6676
lfingers 7.12502
lthumb -28.5422 -3.82601
rfemur -18.31 1.14368 -8.06788
rtibia 46.2258
rfoot -23.5734 14.5613
rtoes -11.2535
lfemur -13.6217 4.18005 -9.87957
ltibia 50.386
lfoot 4.65228 1.74892
ltoes -11.2062
112
root 1.27315 18.5993 2.43143 -183.127 4.70406 -204.535
lowerback 4.80036 -4.2398 12.9327
upperback 13.1253 -3.87204 1.7164
thorax 10.799 0.195432 -5.23817
lowerneck -5.3958 7.77887 -1.34262
upperneck 7.84126 15.7883 -24.3752
head 5.27866 7.7129 -6.18929
rclavicle 8.26944e-014 2.44903e-013
rhumerus -59.5358 -33.9075 -42.5651
rradius 27.7544
rwrist -23.5016
rhand -11.7144 7.81615
rfingers 7.12502
rthumb 14.3322 -21.6692
lclavicle 8.26944e-014 2.44903e-013
lhumerus -6.46765 6.43269 36.7936
lradius 88.8163
lwrist -34.7522
lhand -55.6683 -32.7594
lfingers 7.12502
lthumb -28.0192 -4.83118
rfemur -18.491 1.7602 -7.81113
rtibia 46.1666
rfoot -23.6682 13.9649
rtoes -11.4966
lfemur -13.7052 3.71907 -11.0717
ltibia 50.352
lfoot 2.58357 3.44514
ltoes -12.1362
113
root 1.26602 18.6081 2.44228 -182.991 4.86168 -204.372
lowerback 4.75506 -4.22044 12.9529
upperback 13.1573 -3.85426 1.68236
thorax 10.8656 0.213972 -5.28792
lowerneck -5.55853 7.74176 -1.25129
upperneck 8.01264 15.7874 -24.3968
head 5.37002 7.68243 -6.20115
rclavicle -5.88403e-014 -5.725e-014
rhumerus -58.8132 -33.7931 -44.6895
rradius 28.1146
rwrist -23.5619
rhand -11.5603 7.57806
rfingers 7.12502
rthumb 14.4806 -21.8966
lclavicle -5.88403e-014 -5.725e-014
lhumerus -6.50575 5.77998 37.5163
lradius 89.5886
lwrist -34.6136
lhand -55.0592 -33.7906
lfingers 7.12502
lthumb -27.4368 -5.76863
rfemur -18.6706 2.31455 -7.56426
rtibia 46.0926
rfoot -23.7499 13.3675
rtoes -11.7822
lfemur -13.8574 3.20242 -12.2668
ltibia 50.2741
lfoot 0.59986 5.00298
ltoes -12.7505
114
root 1.25848 18.6177 2.45372 -182.86 5.01383 -204.191
lowerback 4.74214 -4.20647 12.9835
upperback 13.1753 -3.83869 1.65507
thorax 10.8959 0.228655 -5.33481
lowerneck -5.62364 7.71399 -1.22479
upperneck 8.10564 15.7637 -24.3729
head 5.40718 7.65356 -6.19666
rclavicle 6.67916e-014 1.17681e-013
rhumerus -58.0503 -33.6425 -46.745
rradius 28.4494
rwrist -23.5076
rhand -11.367 7.28663
rfingers 7.12502
rthumb 14.6669 -22.1746
lclavicle 6.67916e-014 1.17681e-013
lhumerus -6.57435 4.92511 38.2641
lradius 90.2883
lwrist -34.5779
lhand -54.7044 -33.939
lfingers 7.12502
lthumb -27.0974 -5.86377
rfemur -18.8283 2.80934 -7.31144
rtibia 45.9987
rfoot -23.7939 12.8508
rtoes -12.1093
lfemur -14.0252 2.67671 -13.4359
ltibia 50.1504
lfoot -1.34587 6.29862
ltoes -13.5061
115
root 1.25179 18.6296 2.46539 -182.731 5.14381 -204.009
lowerback 4.74683 -4.20125 12.9818
upperback 13.1852 -3.83196 1.62284
thorax 10.9046 0.233728 -5.36923
lowerneck -5.65685 7.69133 -1.12466
upperneck 8.17596 15.7373 -24.3931
head 5.44044 7.62777 -6.22028
rclavicle 3.02153e-014 -3.49861e-014
rhumerus -57.232 -33.4419 -48.7941
rradius 28.7673
rwrist -23.2791
rhand -10.8608 7.33585
rfingers 7.12502
rthumb 15.1546 -22.0892
lclavicle 3.02153e-014 -3.49861e-014
lhumerus -6.68703 3.93375 39
lradius 90.9289
lwrist -34.4659
lhand -54.4156 -33.8795
lfingers 7.12502
lthumb -26.821 -5.76148
rfemur -18.965 3.24825 -7.06201
rtibia 45.8835
rfoot -23.8259 12.3322
rtoes -12.4914
lfemur -14.2134 2.10661 -14.6012
ltibia 49.9855
lfoot -3.24168 7.27543
ltoes -14.2545
116
root 1.24559 18.6449 2.47634 -182.6 5.30458 -203.78
lowerback 4.74225 -4.19826 13.0033
upperback 13.2187 -3.82627 1.58636
thorax 10.946 0.246291 -5.4207
lowerneck -5.6774 7.68571 -0.954019
upperneck 8.15435 15.7086 -24.4728
head 5.45314 7.60923 -6.27572
rclavicle -4.77083e-015 -6.04305e-014
rhumerus -56.2291 -33.1266 -51.0077
rradius 29.1492
rwrist -23.3284
rhand -10.3677 7.29334
rfingers 7.12502
rthumb 15.6295 -22.0953
lclavicle -4.77083e-015 -6.04305e-014
lhumerus -6.84992 2.89399 39.7027
lradius 91.5304
lwrist -34.2066
lhand -54.0875 -33.8121
lfingers 7.12502
lthumb -26.5071 -5.64632
rfemur -19.1061 3.63459 -6.77082
rtibia 45.7537
rfoot -23.8131 11.9164
rtoes -12.7851
lfemur -14.3957 1.50755 -15.7145
ltibia 49.7867
lfoot -5.02356 7.99688
ltoes -14.7815
117
root 1.23934 18.6597 2.48834 -182.483 5.45722 -203.508
lowerback 4.77572 -4.19983 13.0407
upperback 13.2431 -3.81924 1.57198
thorax 10.9548 0.257882 -5.45483
lowerneck -5.61675 7.65958 -0.792022
upperneck 8.0794 15.6519 -24.6082
head 5.43565 7.59026 -6.35535
rclavicle -3.18055e-015 -7.95139e-014
rhumerus -55.1334 -32.6586 -53.3078
rradius 29.5873
rwrist -23.607
rhand -9.78908 7.53459
rfingers 7.12502
rthumb 16.1867 -21.8096
lclavicle -3.18055e-015 -7.95139e-014
lhumerus -7.05757 1.7722 40.4299
lradius 92.0599
lwrist -33.9183
lhand -53.7887 -33.7279
lfingers 7.12502
lthumb -26.221 -5.5193
rfemur -19.2271 3.9786 -6.43621
rtibia 45.6231
rfoot -23.7903 11.534
rtoes -13.212
lfemur -14.5813 0.908879 -16.7597
ltibia 49.5809
lfoot -6.64126 8.49424
ltoes -15.0304
118
root 1.23245 18.672 2.49994 -182.373 5.64483 -203.181
lowerback 4.82297 -4.18245 13.1267
upperback 13.2665 -3.78479 1.56215
thorax 10.9594 0.287338 -5.50933
lowerneck -5.62926 7.6196 -0.621532
upperneck 8.1116 15.6075 -24.7194
head 5.46465 7.56321 -6.42312
rclavicle 1.09729e-013 7.31528e-014
rhumerus -53.9577 -32.0198 -55.7066
rradius 29.9884
rwrist -23.9782
rhand -9.48333 7.89519
rfingers 7.12502
rthumb 16.4811 -21.4248
lclavicle 1.09729e-013 7.31528e-014
lhumerus -7.28378 0.618395 41.1961
lradius 92.4898
lwrist -33.7595
lhand -53.5361 -33.6664
lfingers 7.12502
lthumb -25.9792 -5.42208
rfemur -19.3643 4.26884 -6.05277
rtibia 45.5097
rfoot -23.7729 11.2055
rtoes -13.6615
lfemur -14.768 0.336049 -17.7259
ltibia 49.3738
lfoot -8.13518 8.79217
ltoes -15.2008
119
root 1.22492 18.6826 2.51267 -182.251 5.80798 -202.86
lowerback 4.8804 -4.17005 13.1862
upperback 13.2651 -3.75875 1.56235
thorax 10.9277 0.303711 -5.53882
lowerneck -5.71272 7.57921 -0.493024
upperneck 8.28776 15.6116 -24.7935
head 5.55148 7.54277 -6.46303
rclavicle 7.4743e-014 1.87653e-013
rhumerus -52.7553 -31.1729 -58.1294
rradius 30.3977
rwrist -24.3873
rhand -9.39218 8.39146
rfingers 7.12502
rthumb 16.5689 -20.9212
lclavicle 7.4743e-014 1.87653e-013
lhumerus -7.56533 -0.437713 42.0668
lradius 92.7933
lwrist -33.8443
lhand -53.3696 -33.6753
lfingers 7.12502
lthumb -25.8197 -5.40767
rfemur -19.5152 4.51039 -5.68587
rtibia 45.4122
rfoot -23.735 10.934
rtoes -13.9816
lfemur -14.9978 -0.21812 -18.6762
ltibia 49.1885
lfoot -9.52689 8.89641
ltoes -15.7937
120
root 1.21853 18.6922 2.52596 -182.135 5.96227 -202.529
lowerback 4.95187 -4.14934 13.2237
upperback 13.2686 -3.71735 1.57263
thorax 10.8977 0.325952 -5.54423
lowerneck -5.82376 7.53283 -0.39998
upperneck 8.45428 15.6057 -24.8433
head 5.63438 7.51643 -6.48916
rclavicle -5.88403e-014 -1.01778e-013
rhumerus -51.5415 -30.2617 -60.4808
rradius 30.7738
rwrist -24.6897
rhand -9.40617 8.94628
rfingers 7.12502
rthumb 16.5554 -20.3675
lclavicle -5.88403e-014 -1.01778e-013
lhumerus -7.83668 -1.46188 43.0076
lradius 92.9636
lwrist -34.1106
lhand -53.2723 -33.7459
lfingers 7.12502
lthumb -25.7266 -5.46476
rfemur -19.6602 4.7234 -5.3117
rtibia 45.3181
rfoot -23.7005 10.7177
rtoes -14.2821
lfemur -15.2285 -0.766216 -19.5927
ltibia 49.0114
lfoot -10.8716 8.83808
ltoes -16.483
121
root 1.21213 18.7034 2.53905 -182.003 6.11233 -202.181
lowerback 5.00564 -4.12469 13.2914
upperback 13.2553 -3.67773 1.57375
thorax 10.8571 0.347365 -5.57766
lowerneck -5.89223 7.49298 -0.329982
upperneck 8.61649 15.5947 -24.8502
head 5.70152 7.48998 -6.5008
rclavicle 3.97569e-014 1.20861e-013
rhumerus -50.4008 -29.283 -62.7287
rradius 31.1681
rwrist -24.7747
rhand -9.39813 9.4477
rfingers 7.12502
rthumb 16.5632 -19.8654
lclavicle 3.97569e-014 1.20861e-013
lhumerus -8.14189 -2.50912 43.9721
lradius 93.0379
lwrist -34.4655
lhand -53.2412 -33.7544
lfingers 7.12502
lthumb -25.6968 -5.46903
rfemur -19.8072 4.87804 -4.92344
rtibia 45.2037
rfoot -23.6356 10.5232
rtoes -14.5004
lfemur -15.5141 -1.28644 -20.4608
ltibia 48.8545
lfoot -12.1669 8.65014
ltoes -16.9663
